<?xml version="1.0" encoding="utf-8"?>
<!-- Generator: Adobe Illustrator 15.0.2, SVG Export Plug-In . SVG Version: 6.00 Build 0)  -->
<!DOCTYPE svg PUBLIC "-//W3C//DTD SVG 1.1//EN" "http://www.w3.org/Graphics/SVG/1.1/DTD/svg11.dtd">
<svg version="1.1" id="Layer_1" xmlns="http://www.w3.org/2000/svg" xmlns:xlink="http://www.w3.org/1999/xlink" x="0px" y="0px"
	 width="174px" height="69px" viewBox="-14 -1.5 174 69" enable-background="new -14 -1.5 174 69" xml:space="preserve">
<polygon opacity="0.5" fill="#98A6A5" enable-background="new    " points="-13.461,9.082 1.932,11.984 5.817,19.806 19.436,31.792 
	29.744,37.344 28.174,43.495 32.15,48.786 32.625,66.928 45.091,52.611 50.778,42.973 39.838,36.186 27.299,34.14 18.416,25.476 
	26.951,25.421 34.763,17.541 40.679,13.791 29.854,4.853 25.271,11.033 21.736,3.863 -3.925,3.338 "/>
<polygon opacity="0.5" fill="#98A6A5" enable-background="new    " points="69.829,21.96 59.996,26.03 59.529,33.686 65.286,38.018 
	71.724,38.768 76.762,56.946 82.422,56.473 87.674,40.691 91.997,34.925 90.598,33.051 95.027,31.257 93.115,26.443 101.046,26.797 
	105.309,35.336 111.831,28.713 118.8,35.336 120.879,33.675 123.161,26.954 127.284,26.598 126.203,20.807 134.146,17.921 
	134.531,12.969 144.191,9.423 159.742,6.935 136.272,3.863 109.635,2.785 91.061,6.003 78.06,4.527 70.37,11.074 77.057,9.364 
	78.36,11.745 67.554,15.481 63.018,19.217 66.504,21.318 72.922,18.521 75.975,21.423 75.666,17.563 79.085,20.373 85.508,21.951 
	79.046,24.415 "/>
<polygon opacity="0.5" fill="#98A6A5" enable-background="new    " points="123.131,51.158 124.375,57.307 132.312,55.74 
	139.156,60.06 142.502,52.376 137.027,46.238 "/>
<polygon opacity="0.5" fill="#98A6A5" enable-background="new    " points="152.437,57.744 150.034,62.958 154.74,59.11 "/>
<polygon opacity="0.5" fill="#98A6A5" enable-background="new    " points="138.004,15.151 137.495,20.807 131.688,24.415 "/>
<polygon opacity="0.5" fill="#98A6A5" enable-background="new    " points="115.003,39.185 125.148,38.119 128.536,44.125 "/>
<polygon opacity="0.5" fill="#98A6A5" enable-background="new    " points="131.666,40.5 137.564,44.404 140.883,42.233 "/>
<polygon opacity="0.5" fill="#98A6A5" enable-background="new    " points="89.004,47.984 93.115,46.238 89.477,52.376 "/>
<polygon opacity="0.5" fill="#98A6A5" enable-background="new    " points="65.87,10.359 64.042,15.946 67.91,14.01 "/>
<polygon opacity="0.5" fill="#98A6A5" enable-background="new    " points="32.229,1.252 43.605,9.364 54.874,6.35 60.754,-0.516 
	42.581,-1.196 "/>
<polygon opacity="0.5" fill="#98A6A5" enable-background="new    " points="55.883,7.485 58.083,8.521 60.2,6.935 "/>
<polygon opacity="0.5" fill="#98A6A5" enable-background="new    " points="20.791,0.348 27.01,2.785 33.145,0.152 26.967,-0.387 
	"/>
<polygon opacity="0.5" fill="#98A6A5" enable-background="new    " points="126.577,31.257 128.179,36.476 130.213,36.123 "/>
</svg>
